<?xml version="1.0" encoding="UTF-8"?>
<svg id="_レイヤー_1" data-name="レイヤー 1" xmlns="http://www.w3.org/2000/svg" viewBox="0 0 348.16 248.04">
  <path fill="#1daec2" d="M226.18,122.56c-2.12.55-7.24.68-7.78-2.07-.79-4.07,1.71-8.29,2.06-12.31-.45-1.24-1.58-2.38-1.47-3.84.1-1.3,1.19-2.46,2.12-3.46l.1-15.53-46.02,22.43c-1.9.93-3.5,0-5.24-.84l-50.79-24.72c-1.14-.55-1.85-.97-2.09-1.92-.2-.78-.24-2.31.82-2.83l53.63-26.46c1.65-.82,3.62-.09,5.16.67l52,25.61c1.12.55,1.23,1.67,1.17,2.62-.19,2.73-4.35,1.55-4.27,5.5l.34,15.42c.87.88,1.95,2.1,2.25,3.15.43,1.5-1.19,2.64-1.32,3.78.06,6.68,5.52,13.19-.66,14.79Z"/>
  <path fill="#1daec2" d="M204.02,121.73c-9,4.64-17.61,8.51-27,11.54-1.96.63-3.62,1.09-5.68.44-10.49-3.29-20.34-7.62-29.98-12.91-2.02-1.11-3.86-2.95-3.88-5.37l-.12-16.54c0-.62.24-1.13.5-1.33s.97-.41,1.52-.14l30.28,14.74c2.59,1.26,4.96,1.43,7.6.15l32.16-15.49.03,18.8c0,2.99-2.9,4.8-5.43,6.1Z"/>
  <path fill="#1daec2" d="M330.34,207.43l-28.15-35.4V23.17c0-7.2-5.84-13.04-13.04-13.04H57.65c-7.2,0-13.04,5.84-13.04,13.04v148.87l-28.15,35.4c-.73.92-1.13,2.07-1.13,3.25v15.67c0,5.75,4.66,10.4,10.4,10.4h295.34c5.75,0,10.4-4.65,10.4-10.4v-15.67c0-1.19-.4-2.33-1.13-3.25ZM63.01,28.53h220.78v125.11H63.01V28.53ZM203.11,224.38h-59.43v-15.73h59.43v15.73Z"/>
</svg>